<?xml version="1.0"?>
<!-- Generated by SVGo -->
<svg width="500" height="500"
     xmlns="http://www.w3.org/2000/svg"
     xmlns:xlink="http://www.w3.org/1999/xlink">
<line x1="50" y1="450" x2="50" y2="50" style="stroke:black;stroke-width:2" />
<line x1="45" y1="450" x2="55" y2="450" style="stroke:black" />
<text x="40" y="454" style="text-anchor:end;font-size:12px;fill:black" >0.0</text>
<line x1="45" y1="370" x2="55" y2="370" style="stroke:black" />
<text x="40" y="374" style="text-anchor:end;font-size:12px;fill:black" >20.0</text>
<line x1="45" y1="290" x2="55" y2="290" style="stroke:black" />
<text x="40" y="294" style="text-anchor:end;font-size:12px;fill:black" >40.0</text>
<line x1="45" y1="210" x2="55" y2="210" style="stroke:black" />
<text x="40" y="214" style="text-anchor:end;font-size:12px;fill:black" >60.0</text>
<line x1="45" y1="130" x2="55" y2="130" style="stroke:black" />
<text x="40" y="134" style="text-anchor:end;font-size:12px;fill:black" >80.0</text>
<line x1="45" y1="50" x2="55" y2="50" style="stroke:black" />
<text x="40" y="54" style="text-anchor:end;font-size:12px;fill:black" >100.0</text>
<text x="250" y="25" style="text-anchor:middle;font-size:16px;fill:black" >Example Bar Chart</text>
<text x="90" y="470" style="text-anchor:middle;font-size:12px;fill:black" >A</text>
<rect x="50" y="330" width="75" height="120" style="fill:blue" />
<text x="170" y="470" style="text-anchor:middle;font-size:12px;fill:black" >B</text>
<rect x="130" y="210" width="75" height="240" style="fill:blue" />
<text x="250" y="470" style="text-anchor:middle;font-size:12px;fill:black" >C</text>
<rect x="210" y="130" width="75" height="320" style="fill:blue" />
<text x="330" y="470" style="text-anchor:middle;font-size:12px;fill:black" >D</text>
<rect x="290" y="290" width="75" height="160" style="fill:blue" />
<text x="410" y="470" style="text-anchor:middle;font-size:12px;fill:black" >E</text>
<rect x="370" y="90" width="75" height="360" style="fill:blue" />
</svg>
